<svg xmlns="http://www.w3.org/2000/svg" width="521.221" height="619.734" viewBox="0 0 521.221 619.734">
  <g id="undraw_refreshing_beverage_td3r" transform="translate(0.24 0)">
    <circle id="Ellipse_1" data-name="Ellipse 1" cx="57.774" cy="57.774" r="57.774" transform="translate(72.98 56.189)" fill="#3f3d56"/>
    <circle id="Ellipse_2" data-name="Ellipse 2" cx="57.774" cy="57.774" r="57.774" transform="translate(404.418 75.447)" fill="#3f3d56"/>
    <path id="Path_1" data-name="Path 1" d="M800.7,216.718a57.77,57.77,0,0,0-52.6,33.891,57.765,57.765,0,0,1,91.016,67.022A57.764,57.764,0,0,0,800.7,216.718Z" transform="translate(-337.499 -143.299)" fill="#ad0c62"/>
    <path id="Path_2" data-name="Path 2" d="M471.774,197.718a57.769,57.769,0,0,1,52.6,33.891,57.765,57.765,0,0,0-91.017,67.022,57.764,57.764,0,0,1,38.413-100.913Z" transform="translate(-342.033 -143.556)" fill="#ad0c62"/>
    <path id="Path_3" data-name="Path 3" d="M640.993,542.713A148.493,148.493,0,1,1,597.5,437.21,149.117,149.117,0,0,1,640.993,542.713Z" transform="translate(-343 -140.897)" fill="#3f3d56"/>
    <path id="Path_4" data-name="Path 4" d="M639.511,542.713a148.493,148.493,0,0,1-13.389,61.818A176.484,176.484,0,0,1,454.564,398.086,149.117,149.117,0,0,1,639.511,542.713Z" transform="translate(-341.518 -140.897)" fill="#ad0c62"/>
    <circle id="Ellipse_3" data-name="Ellipse 3" cx="176.361" cy="176.361" r="176.361" transform="translate(110.482 88.624)" fill="#3f3d56"/>
    <path id="Path_5" data-name="Path 5" d="M668.6,413.065a57.773,57.773,0,0,1,80.7-11.929,57.776,57.776,0,1,0-80.7,11.929Z" transform="translate(-338.896 -142.048)" fill="#fff"/>
    <path id="Path_6" data-name="Path 6" d="M535.6,424.065a57.773,57.773,0,0,1,80.7-11.929,57.776,57.776,0,1,0-80.7,11.929Z" transform="translate(-340.701 -141.899)" fill="#fff"/>
    <circle id="Ellipse_4" data-name="Ellipse 4" cx="21.285" cy="21.285" r="21.285" transform="translate(211.84 203.157)" fill="#3f3d56"/>
    <circle id="Ellipse_5" data-name="Ellipse 5" cx="21.285" cy="21.285" r="21.285" transform="translate(349.685 186.94)" fill="#3f3d56"/>
    <circle id="Ellipse_6" data-name="Ellipse 6" cx="11.149" cy="11.149" r="11.149" transform="translate(288.871 259.917)" fill="#ff6584"/>
    <path id="Path_7" data-name="Path 7" d="M474.434,723.746V674.718H458.217v49.028A24.332,24.332,0,0,0,442,746.682h48.651a24.331,24.331,0,0,0-16.215-22.935Z" transform="translate(-341.653 -137.083)" fill="#3f3d56"/>
    <path id="Path_8" data-name="Path 8" d="M533.434,723.746V674.718H517.217v49.028A24.332,24.332,0,0,0,501,746.682h48.651a24.331,24.331,0,0,0-16.214-22.935Z" transform="translate(-340.853 -137.083)" fill="#3f3d56"/>
    <path id="Path_9" data-name="Path 9" d="M555.01,249.818c-7.348-11.83-12.284-25.728-10.755-39.57s10.6-27.35,23.947-31.317,29.887,4.252,32.4,17.949a112.636,112.636,0,0,1,59.678-49.7c11.668-4.111,27.173-5.044,33.92,5.326,3.339,5.132,3.7,12.11,8.169,16.29,7.012,6.554,18.256,1.938,27.838,2.5,13.475.788,24.322,13.363,26.019,26.754S752,224.893,743.241,235.167s-20.142,17.9-31.374,25.381" transform="translate(-340.269 -144.282)" fill="#3f3d56"/>
    <path id="Path_10" data-name="Path 10" d="M658.232,452.278c.726-.767,1.475-1.51,2.258-2.219q.519-.47,1.055-.922.335-.282.675-.556c.393-.317.517-.394.041-.04a44.2,44.2,0,0,1,5.431-3.477q1.307-.7,2.659-1.313c.212-.1.426-.188.639-.283-.956.425-.206.088.039-.011q.812-.326,1.635-.62a47,47,0,0,1,6.24-1.752c.976-.2,1.958-.36,2.942-.518.663-.106-.834.093-.167.023.292-.03.582-.069.874-.1q.875-.091,1.753-.151a49.036,49.036,0,0,1,6.331-.022c1.054.064,2.1.171,3.15.3-1.057-.125.154.029.526.09q.866.142,1.726.316a46.144,46.144,0,0,1,6.074,1.663q.742.259,1.474.545c.271.106.54.216.81.325-.136-.055-.889-.395-.127-.049.954.433,1.9.879,2.824,1.371a44.6,44.6,0,0,1,5.442,3.469c.526.386-.592-.49-.093-.068.223.189.455.367.679.555q.539.451,1.062.922c.892.8,1.747,1.648,2.57,2.521q1.127,1.2,2.169,2.47c-.009-.012.782.97.361.441-.353-.444.146.194.225.3q.629.843,1.222,1.712a53.088,53.088,0,0,1,3.485,5.914q.736,1.451,1.39,2.942c.1.218.428,1.023.068.147.1.237.195.475.29.713q.359.9.691,1.8a84.8,84.8,0,0,1,3.661,13.627q.331,1.766.606,3.543.123.792.236,1.586c0-.014.174,1.291.083.588-.081-.626.059.473.073.59.307,2.469.551,4.945.747,7.425.386,4.864.592,9.74.74,14.616.376,12.371.7,24.744,1.043,37.115l2.125,75.779L738.1,699.36l.264,9.407a4.561,4.561,0,1,0,9.122,0L745.3,630.9l-2.169-77.346-1.092-38.935c-.292-10.425-.713-20.839-2.317-31.16-2.955-19.008-11.54-38.767-29.892-47.4-17.141-8.061-38.354-6.191-53.372,5.53a41.938,41.938,0,0,0-4.675,4.239,4.561,4.561,0,0,0,6.45,6.45Z" transform="translate(-338.825 -140.389)" fill="#5cfaa6"/>
    <path id="Path_11" data-name="Path 11" d="M692.068,593.718A5.074,5.074,0,0,0,687,598.786l10.134,154a5.091,5.091,0,0,0,5.07,5.134h83.113a5.074,5.074,0,0,0,5.068-5.068L800.522,598.72a5.063,5.063,0,0,0-5.07-5Z" transform="translate(-338.328 -138.182)" fill="#5cfaa6"/>
    <path id="Path_12" data-name="Path 12" d="M699.984,601.218a5.068,5.068,0,0,0-5.056,5.406l9.319,138.859a5.082,5.082,0,0,0,5.056,4.729H778a5.082,5.082,0,0,0,5.056-4.729l9.319-138.859a5.068,5.068,0,0,0-5.056-5.406Z" transform="translate(-338.221 -138.081)" fill="#ad0c62"/>
    <path id="Path_13" data-name="Path 13" d="M730.027,624.718A2.03,2.03,0,0,0,728,626.745v11.149a2.03,2.03,0,0,0,2.027,2.027h17.231a2.03,2.03,0,0,0,2.027-2.027V626.745a2.03,2.03,0,0,0-2.027-2.027Z" transform="translate(-337.772 -137.762)" fill="#5cfaa6"/>
    <path id="Path_14" data-name="Path 14" d="M749.027,653.718A2.03,2.03,0,0,0,747,655.745v11.149a2.03,2.03,0,0,0,2.027,2.027h17.231a2.03,2.03,0,0,0,2.027-2.027V655.745a2.03,2.03,0,0,0-2.027-2.027Z" transform="translate(-337.514 -137.368)" fill="#5cfaa6"/>
    <path id="Path_15" data-name="Path 15" d="M731.027,677.718A2.03,2.03,0,0,0,729,679.745v11.149a2.03,2.03,0,0,0,2.027,2.027h17.231a2.03,2.03,0,0,0,2.027-2.027V679.745a2.03,2.03,0,0,0-2.027-2.027Z" transform="translate(-337.758 -137.042)" fill="#5cfaa6"/>
    <path id="Path_16" data-name="Path 16" d="M408.043,621.035c5.274,1.749,8.989,6.236,12.079,10.635,3.186,4.534,6.106,9.458,10.46,13a17.094,17.094,0,0,0,13.458,4.046c4.774-.72,8.821-4.056,9.547-8.979.956-6.482-3.581-12.481-7.56-17.093l-1.075,2.6c6.341.684,11.854,4.3,17.66,6.625,5.563,2.229,12.143,3.446,17.7.54,4.264-2.23,6.923-6.691,7.824-11.315a23.274,23.274,0,0,0-2.193-14.818c-2.958-6.049-7.81-10.937-12.515-15.645l-1.479,2.541c7,1.051,14.8,2.03,20.867-2.466a12.372,12.372,0,0,0,4.878-7.121,13.76,13.76,0,0,0-1.487-9.321c-3.192-6.217-9.217-10.6-14.618-14.768a213.127,213.127,0,0,0-40.7-24.742c-1.763-.82-3.31,1.8-1.535,2.625a214.319,214.319,0,0,1,35.243,20.658c5.322,3.849,10.947,7.817,15.382,12.7,3.765,4.144,7.195,10.483,3.083,15.606-4.837,6.027-13.59,4.9-20.3,3.9a1.534,1.534,0,0,0-1.479,2.541c7.014,7.017,15.343,15.441,14.123,26.24-.463,4.094-2.4,8.276-6.048,10.441-4.952,2.943-11.146,1.428-16.134-.607-6.056-2.47-11.635-5.937-18.267-6.652-1.429-.154-1.843,1.706-1.075,2.6,3.218,3.728,7.077,8.58,6.792,13.807-.239,4.374-4.053,6.991-8.143,7.238-10.4.629-15.657-10.2-20.932-17.306-3.338-4.5-7.3-8.626-12.742-10.43-1.862-.617-2.66,2.318-.808,2.932Z" transform="translate(-342.128 -138.985)" fill="#ad0c62"/>
  </g>
</svg>
