<?xml version="1.0" encoding="utf-8"?>
<!-- Generator: Adobe Illustrator 25.0.1, SVG Export Plug-In . SVG Version: 6.00 Build 0)  -->
<svg version="1.1" id="Layer_1" xmlns="http://www.w3.org/2000/svg" xmlns:xlink="http://www.w3.org/1999/xlink" x="0px" y="0px"
	 viewBox="0 0 430 430" style="enable-background:new 0 0 430 430;" xml:space="preserve">
<style type="text/css">
	.st0{fill:#121331;}
	.st1{fill:#AD0C62;}
</style>
<g id="_x35_47">
	<g>
		<path class="st0" d="M286.8,367.8H143.2c-3,0-5.5-2.2-5.9-5.1l-20.2-135.6c-0.4-2.4,0.8-4.9,3-6.1l30.3-17.3c1.8-1,4.1-1,5.9,0
			l28,15.9l28-15.9c1.8-1,4.1-1.1,5.9,0l6.6,3.7c0.1,0.1,0.2,0.1,0.3,0.2l21.1,12l28-15.9c1.8-1,4.1-1,5.9,0l29.9,17
			c2.2,1.2,3.3,3.6,3,6.1l-20.2,135.8C292.3,365.6,289.8,367.8,286.8,367.8z M148.4,355.8h133.2l18.9-126.7l-23.4-13.3l-28,15.9
			c-1.8,1-4.1,1-5.9,0l-24.4-13.9c-0.1,0-0.2-0.1-0.3-0.2l-3.3-1.9l-28,15.9c-1.8,1-4.1,1-5.9,0l-28-15.9l-23.8,13.6L148.4,355.8z"
			/>
		<path class="st0" d="M193.2,367.8c-3.1,0-5.8-2.4-6-5.6l-8.9-135.3c-0.2-3.3,2.3-6.2,5.6-6.4c3.3-0.2,6.2,2.3,6.4,5.6l8.9,135.3
			c0.2,3.3-2.3,6.2-5.6,6.4C193.5,367.8,193.3,367.8,193.2,367.8z"/>
		<path class="st0" d="M237.7,367.8c-0.1,0-0.3,0-0.4,0c-3.3-0.2-5.8-3.1-5.6-6.4l8.5-135.3c0.2-3.3,3.1-5.8,6.4-5.6
			c3.3,0.2,5.8,3.1,5.6,6.4l-8.5,135.3C243.4,365.3,240.8,367.8,237.7,367.8z"/>
	</g>
	<g>
		<path class="st0" d="M305.5,244.7c-2.4,0-4.6-1.4-5.6-3.8c-1.2-3.1,0.3-6.6,3.4-7.8c20.4-8.1,33.6-25.9,33.6-45.2
			c0-23.6-19.5-44.1-46.4-48.8c-3.8-0.7-7.7-1-11.5-1c-11.9,0-23.3,3.1-33,8.9c-2.8,1.7-6.5,0.8-8.2-2.1c-1.7-2.8-0.8-6.5,2.1-8.2
			c11.6-6.9,25.1-10.6,39.2-10.6c4.6,0,9.2,0.4,13.6,1.2c32.6,5.7,56.3,31.2,56.3,60.6c0,24.2-16.2,46.4-41.2,56.3
			C307,244.6,306.2,244.7,305.5,244.7z"/>
		<path class="st0" d="M124.5,244.7c-0.7,0-1.5-0.1-2.2-0.4c-25-10-41.2-32.1-41.2-56.3c0-29.4,23.7-54.9,56.3-60.6
			c4.5-0.8,9-1.2,13.6-1.2c13.6,0,26.8,3.4,38.1,9.9c2.9,1.6,3.9,5.3,2.2,8.2c-1.6,2.9-5.3,3.9-8.2,2.2c-9.5-5.5-20.6-8.4-32.1-8.4
			c-3.9,0-7.8,0.3-11.6,1c-26.9,4.7-46.4,25.2-46.4,48.8c0,19.3,13.2,37,33.6,45.2c3.1,1.2,4.6,4.7,3.4,7.8
			C129.2,243.3,126.9,244.7,124.5,244.7z"/>
		<path class="st0" d="M138.5,139.2c-0.2,0-0.3,0-0.5,0c-3.3-0.3-5.8-3.2-5.5-6.5c3.1-39.6,39.4-70.5,82.5-70.5
			c43.1,0,79.4,31,82.5,70.5c0.3,3.3-2.2,6.2-5.5,6.5c-3.3,0.3-6.2-2.2-6.5-5.5c-2.6-33.4-33.6-59.5-70.5-59.5
			c-36.9,0-67.9,26.1-70.5,59.5C144.2,136.9,141.6,139.2,138.5,139.2z"/>
	</g>
	<path class="st1" d="M135.7,185c-1.6,0-3.1-0.6-4.3-1.8c-2.3-2.4-2.3-6.2,0.1-8.5l12.1-11.9c2.4-2.3,6.2-2.3,8.5,0.1
		c2.3,2.4,2.3,6.2-0.1,8.5l-12.1,11.9C138.7,184.4,137.2,185,135.7,185z"/>
	<path class="st1" d="M295.3,186.1c-1,0-2-0.3-3-0.8l-14.7-8.5c-2.9-1.7-3.9-5.3-2.2-8.2c1.7-2.9,5.3-3.9,8.2-2.2l14.7,8.5
		c2.9,1.7,3.9,5.3,2.2,8.2C299.4,185.1,297.4,186.1,295.3,186.1z"/>
	<path class="st1" d="M214.1,186.2c-1,0-2-0.3-3-0.8c-2.9-1.7-3.9-5.3-2.2-8.2l8.5-14.7c1.7-2.9,5.3-3.9,8.2-2.2
		c2.9,1.7,3.9,5.3,2.2,8.2l-8.5,14.7C218.2,185.2,216.2,186.2,214.1,186.2z"/>
	<path class="st1" d="M229.7,116.2c-1,0-2-0.3-3-0.8l-14.7-8.5c-2.9-1.7-3.9-5.3-2.2-8.2c1.7-2.9,5.3-3.9,8.2-2.2l14.7,8.5
		c2.9,1.7,3.9,5.3,2.2,8.2C233.8,115.1,231.8,116.2,229.7,116.2z"/>
</g>
</svg>
