<?xml version="1.0" encoding="utf-8"?>
<!-- Generator: Adobe Illustrator 25.0.1, SVG Export Plug-In . SVG Version: 6.00 Build 0)  -->
<svg version="1.1" id="Layer_1" xmlns="http://www.w3.org/2000/svg" xmlns:xlink="http://www.w3.org/1999/xlink" x="0px" y="0px"
	 viewBox="0 0 430 430" style="enable-background:new 0 0 430 430;" xml:space="preserve">
<style type="text/css">
	.st0{fill:#121331;}
	.st1{fill:#AD0C62;}
</style>
<g>
	<path class="st0" d="M113.9,178.4c-0.8,0-1.7-0.2-2.5-0.5c-3-1.4-4.3-4.9-3-8c6.5-14.2,10.3-29.4,11.3-45.2
		c0.5-7.2-0.2-14.4-1-22.1c-0.8-8.5-1.7-17.3-0.8-26.3c1.4-14.6,8.6-37.8,21.9-37.9c0.1,0,0.1,0,0.2,0c8.8,0,14,10.3,15.8,13.8
		c1.5,3,0.3,6.6-2.6,8.1c-3,1.5-6.6,0.3-8.1-2.6c-2.7-5.3-4.5-6.7-5.1-7.1c-2.9,1.4-8.7,13-10.1,27c-0.8,7.8,0,15.7,0.8,24
		c0.7,7.8,1.5,15.8,1,24c-1.1,17.2-5.3,33.8-12.4,49.4C118.4,177.1,116.2,178.4,113.9,178.4z M140.3,50.4L140.3,50.4z"/>
	<g>
		<path class="st1" d="M344.1,141c-0.8,0-1.5,0-2.3-0.1l-147.3-17.4c-1.6-0.2-3.1-1.1-4.1-2.4c-1-1.3-1.4-3-1.1-4.6l3.1-26.5
			c0.4-3.3,3.4-5.6,6.7-5.3L346.4,102c10.7,1.3,18.4,11,17.1,21.7c0,0,0,0,0,0C362.4,133.7,353.9,141,344.1,141z M201.9,112.2
			l141.3,16.7c4.1,0.5,7.9-2.5,8.4-6.6l0,0c0.5-4.1-2.5-7.9-6.6-8.4L203.7,97.3L201.9,112.2z M357.6,123L357.6,123L357.6,123z
			 M189.4,116.4c0,0,0,0.1,0,0.2C189.3,116.6,189.3,116.5,189.4,116.4L189.4,116.4z"/>
		<path class="st1" d="M169.6,107.1c-0.2,0-0.5,0-0.7,0l-53.1-6.3c-3.3-0.4-5.6-3.4-5.3-6.7c0.4-3.3,3.4-5.6,6.7-5.3l53.1,6.3
			c3.3,0.4,5.6,3.4,5.3,6.7C175.2,104.8,172.6,107.1,169.6,107.1z"/>
		<path class="st1" d="M166.9,132.7c-0.2,0-0.5,0-0.7,0c-3.3-0.4-5.6-3.4-5.3-6.7l6.3-53.1c0.4-3.3,3.4-5.6,6.7-5.3
			c3.3,0.4,5.6,3.4,5.3,6.7l-6.3,53.1C172.5,130.4,169.9,132.7,166.9,132.7z"/>
		<path class="st1" d="M182.7,134.4c-0.7,0-1.5,0-2.2-0.1l-67.9-8c-3.3-0.4-5.6-3.4-5.3-6.7c0.4-3.3,3.4-5.6,6.7-5.3l67.9,8
			c3.6,0.4,6.9-2.1,7.4-5.7c0-0.1,0-0.1,0-0.2l3.3-28.1c0.2-1.8-0.3-3.5-1.4-5c-1.1-1.4-2.7-2.3-4.5-2.5l-67.9-8
			c-3.3-0.4-5.6-3.4-5.3-6.7c0.4-3.3,3.4-5.6,6.7-5.3l67.9,8c5,0.6,9.4,3.1,12.5,7c3.1,3.9,4.5,8.8,3.9,13.8l-3.3,28.1
			c0,0.2-0.1,0.4-0.1,0.6C199.8,127.6,191.8,134.4,182.7,134.4z M189.3,116.6C189.3,116.6,189.3,116.6,189.3,116.6
			C189.3,116.6,189.3,116.6,189.3,116.6z M189.4,116.4c0,0,0,0.1,0,0.2C189.3,116.6,189.3,116.5,189.4,116.4L189.4,116.4z"/>
	</g>
	<path class="st0" d="M137.6,262.8c-3.3,0-5.9-2.6-6-5.9c-0.2-14.7,0.6-29.4,2.4-43.6c2.5-19.3,6.5-36.3,10.4-52.7
		c8.1-33.9,15-63.1,3.2-96.5c-0.8-2.3-1.7-4.6-2.7-6.9c-1.3-3,0.1-6.6,3.2-7.9c3-1.3,6.6,0.1,7.9,3.2c1.1,2.5,2.1,5.1,3,7.6
		c13,36.7,5.7,67.5-2.8,103.2c-3.8,16.1-7.8,32.8-10.2,51.5c-1.8,13.6-2.5,27.7-2.3,41.9C143.7,260,141.1,262.8,137.6,262.8
		C137.7,262.8,137.7,262.8,137.6,262.8z"/>
	<path class="st0" d="M166.7,315c-1.6,0-3.2-0.6-4.4-1.9c-2.4-2.6-5.5-4.3-8.9-5c-2.5-0.5-5-0.4-7.4,0.2c-3.1,0.8-5.9,2.4-8,4.8
		c-2.3,2.4-6.1,2.5-8.5,0.3c-2.4-2.3-2.5-6.1-0.3-8.5c3.8-4,8.5-6.8,13.8-8.2c4.1-1,8.5-1.2,12.7-0.3c5.9,1.2,11.2,4.1,15.4,8.5
		c2.3,2.4,2.1,6.2-0.3,8.5C169.6,314.5,168.1,315,166.7,315z"/>
	<path class="st0" d="M141.7,262.5c-3.3,0-6-2.7-6-6c0-0.6,0.1-1.2,0.3-1.8c9.3-35.5,41.3-60.3,78.1-60.3
		c35.5,0,66.5,22.8,77.1,56.7c1,3.2-0.8,6.5-3.9,7.5c-3.2,1-6.5-0.8-7.5-3.9c-9-28.8-35.4-48.2-65.6-48.2
		c-31.4,0-58.8,21.2-66.6,51.6C146.8,260.6,144.4,262.5,141.7,262.5z"/>
	<path class="st0" d="M169.1,266.4c-0.6,0-1.2-0.1-1.9-0.3c-3.1-1-4.9-4.4-3.8-7.6c7.2-22,27.6-36.7,50.7-36.7
		c23.1,0,43.5,14.7,50.7,36.7c1,3.1-0.7,6.5-3.8,7.6c-3.1,1-6.5-0.7-7.6-3.8c-5.6-17-21.3-28.4-39.2-28.4
		c-17.9,0-33.7,11.4-39.3,28.5C174,264.8,171.6,266.4,169.1,266.4z"/>
	<path class="st0" d="M168.8,295.1L168.8,295.1c-3.3,0-6-2.7-6-6s2.7-6,6-6s6,2.7,6,6S172.2,295.1,168.8,295.1z"/>
	<path class="st0" d="M347.8,315c-0.3,0-0.6,0-1-0.1c-3.3-0.5-5.5-3.6-5-6.9c0.4-2.3,0.6-4.7,0.6-7.1c0-24.2-19.7-43.9-43.9-43.9
		c-3.9,0-7.9,0.5-11.6,1.6c-6.6,1.8-12.7,5.2-17.8,9.8c-2.5,2.2-6.3,2-8.5-0.4c-2.2-2.5-2-6.3,0.4-8.5c6.4-5.8,14.3-10.1,22.6-12.4
		c4.8-1.3,9.8-2,14.8-2c30.8,0,55.9,25.1,55.9,55.9c0,3-0.2,6.1-0.7,9C353.3,312.9,350.7,315,347.8,315z"/>
	<path class="st0" d="M319.9,315c-0.7,0-1.4-0.1-2.1-0.4c-3.1-1.2-4.7-4.6-3.5-7.7c0.7-1.9,1.1-3.9,1.1-5.9
		c0-9.2-7.5-16.7-16.7-16.7c-2.6,0-5.1,0.6-7.4,1.7c-0.9,0.4-1.7,1-2.5,1.5c-2.7,2-6.4,1.5-8.4-1.2c-2-2.6-1.5-6.4,1.2-8.4
		c1.4-1,2.9-2,4.5-2.7c4-1.9,8.2-2.9,12.7-2.9c15.8,0,28.7,12.9,28.7,28.7c0,3.5-0.6,6.9-1.9,10.2C324.6,313.5,322.3,315,319.9,315z
		"/>
	<path class="st0" d="M297.3,315c-2.7,0-5.2-1.9-5.8-4.6c-0.3-1.4-0.7-2.8-1.2-4.2l-0.1-0.3c-0.1-0.2-0.1-0.4-0.2-0.5
		c-1.6-5-3.8-9.8-6.5-14.3c-0.2-0.4-0.4-0.7-0.6-1c0,0,0-0.1-0.1-0.1c-0.3-0.5-0.7-1-1-1.6l-0.1-0.1c-0.5-0.7-0.9-1.4-1.4-2
		c-4.1-5.7-9.1-10.7-14.8-14.8c-1.1-0.8-2.3-1.6-3.5-2.4c-0.7-0.5-1.4-0.9-2.3-1.4c-1.2-0.7-2.3-1.3-3.4-1.9
		c-10.1-5.2-21.4-7.8-32.6-7.6c0,0,0,0,0,0c-6.6,0.1-13.1,1.2-19.4,3.2c0,0-0.1,0-0.1,0l-0.4,0.1c-3.6,1.2-7.1,2.7-10.5,4.4
		c-2.9,1.5-5.6,3.2-8.2,5c-2.7,1.9-6.4,1.3-8.4-1.4c-1.9-2.7-1.3-6.4,1.4-8.4c3-2.2,6.3-4.2,9.6-5.9c3.9-2.1,8.1-3.8,12.4-5.2
		l0.6-0.2c0.1,0,0.1,0,0.2-0.1c7.3-2.3,14.9-3.6,22.6-3.7c0,0,0,0,0.1,0c13.3-0.2,26.5,2.9,38.3,8.9c1.3,0.6,2.6,1.4,4,2.2
		c1.1,0.6,1.9,1.2,2.8,1.7c1.4,0.9,2.8,1.9,4.1,2.9c6.7,4.9,12.5,10.7,17.3,17.4c0.6,0.8,1.2,1.6,1.7,2.4l0.1,0.1
		c0.4,0.6,0.8,1.2,1.2,1.8c0.2,0.4,0.5,0.8,0.7,1.2c3.2,5.3,5.8,11,7.7,16.9c0,0,0,0.1,0,0.1l0.1,0.3c0.1,0.2,0.1,0.4,0.2,0.6
		c0.5,1.6,1,3.3,1.4,5c0.8,3.2-1.2,6.5-4.4,7.2C298.2,315,297.7,315,297.3,315z"/>
	<path class="st0" d="M267.4,315c-2.4,0-4.7-1.5-5.6-3.8c-2-5-4.8-9.5-8.5-13.4c-1.9-2-3.9-3.7-6.1-5.3c-10.8-7.6-24.1-9.6-36.6-5.5
		c-2,0.6-3.8,1.4-5.6,2.3c-3,1.5-6.6,0.3-8.1-2.7c-1.5-3-0.3-6.6,2.7-8.1c2.3-1.2,4.7-2.2,7.3-3c16.1-5.3,33.3-2.7,47.2,7.1
		c2.8,2,5.5,4.3,7.9,6.8c4.8,5,8.5,10.9,11,17.3c1.2,3.1-0.3,6.6-3.4,7.8C268.9,314.9,268.1,315,267.4,315z"/>
	<path class="st0" d="M114.8,362.3c-1,0-2-0.2-2.9-0.7l-42.7-23.3c-1.8-1-3-2.9-3.1-4.9c-0.3-3,1.8-5.8,4.8-6.4
		c1.9-0.4,3.7,0.2,5.1,1.3l41.7,22.7c2.9,1.6,4,5.2,2.4,8.1C119,361.2,117,362.3,114.8,362.3z M66.3,334.1
		C66.3,334.1,66.3,334.1,66.3,334.1C66.3,334.1,66.3,334.1,66.3,334.1z"/>
	<path class="st0" d="M75,315c-0.3,0-0.7,0-1-0.1c-3.3-0.6-5.5-3.7-4.9-6.9c0.1-0.4,0.2-0.7,0.2-1c9.2-30.9,35.7-52.9,67.6-56.2
		c0.4,0,0.7-0.1,1.1-0.1c1-0.1,2-0.2,3-0.2c0,0,0,0,0.1,0c0.1,0,0.2,0,0.3,0c1.8-0.1,3.3-0.1,4.9-0.1c7.7,0.1,15.4,1.4,22.8,3.7
		c0.1,0,0.1,0,0.2,0.1c0.6,0.2,1.2,0.4,1.7,0.6c4.6,1.6,9.1,3.6,13.4,6.1c1,0.5,2,1.2,3.1,1.9c0.4,0.3,0.9,0.5,1.3,0.8
		c1.7,1.1,3.5,2.4,5.2,3.7c4.8,3.8,9.1,8.1,12.9,12.8c0.9,1.1,1.9,2.4,3,4c4.1,5.9,7.4,12.2,9.8,18.9c0.5,1.5,1,2.8,1.3,4
		c0.1,0.2,0.2,0.6,0.2,1c0.5,3.3-1.7,6.4-5,6.9c-3.1,0.5-6-1.4-6.8-4.4c0,0,0,0,0,0c-0.3-1-0.7-2.1-1.1-3.5c-2-5.6-4.8-11-8.3-16
		c-0.9-1.3-1.7-2.4-2.5-3.3c-3.2-4.1-6.9-7.7-11-10.9c-1.5-1.1-3-2.2-4.4-3.2c-0.4-0.2-0.7-0.5-1-0.7c-0.9-0.6-1.8-1.1-2.6-1.6
		c-3.7-2.1-7.5-3.9-11.4-5.2c0,0-0.1,0-0.1,0c-0.4-0.1-0.8-0.3-1.2-0.4c-0.1,0-0.1,0-0.2-0.1c-6.2-2-12.8-3.1-19.5-3.2
		c-0.4,0-0.7,0-1,0c-1,0-2,0-3.1,0.1c-0.1,0-0.2,0-0.4,0c-0.9,0.1-1.7,0.1-2.5,0.2c-0.3,0-0.6,0.1-0.8,0.1c0,0-0.1,0-0.1,0
		c-27.1,2.8-49.7,21.5-57.4,47.7C80.1,313.2,77.7,315,75,315z M209.4,310C209.4,310,209.4,310,209.4,310
		C209.4,310,209.4,310,209.4,310z M209.4,310C209.4,310,209.4,310,209.4,310C209.4,310,209.4,310,209.4,310z M209.4,310
		C209.4,310,209.4,310,209.4,310C209.4,310,209.4,310,209.4,310z M140.5,250.6C140.5,250.6,140.5,250.6,140.5,250.6
		C140.5,250.6,140.5,250.6,140.5,250.6z"/>
	<path class="st0" d="M192.5,391.5h-53.9c-1.2,0-2.5-0.4-3.5-1.1l-0.2-0.1c-2.7-1.9-3.3-5.7-1.4-8.4c1.4-2,3.8-2.9,6.1-2.4h51.8
		c2.1-0.4,4.4,0.3,5.9,2.1c2,2.5,1.7,6.2-0.8,8.3c-0.1,0.1-0.2,0.1-0.3,0.2C195.1,391.1,193.8,391.5,192.5,391.5z"/>
	<path class="st0" d="M186.5,315c-2.3,0-4.5-1.3-5.5-3.5c-0.3-0.6-0.5-1.1-0.8-1.7c-0.8-1.4-1.6-2.8-2.5-4.2
		c-3.2-4.6-7.1-8.4-11.8-11.4c-0.1,0-0.2-0.1-0.3-0.2c-1.1-0.7-2.2-1.3-3.5-2c-0.6-0.3-1.2-0.6-1.8-0.8c-4.8-2.1-10-3.1-15.2-3.1
		c-0.6,0-1.2,0-1.8,0c-0.5,0-1,0.1-1.5,0.1c-0.3,0-0.6,0.1-0.9,0.1l-0.2,0c-0.2,0-0.4,0.1-0.5,0.1l-0.1,0c-0.1,0-0.1,0-0.2,0
		c-12.7,1.7-23.9,9.6-30,21.2c-0.3,0.6-0.6,1.2-0.9,1.8c-1.4,3-5,4.3-8,2.9c-3-1.4-4.3-5-2.9-8c0.4-0.8,0.7-1.5,1.1-2.2
		c7.9-15,22.5-25.3,39-27.5c0.2,0,0.5-0.1,0.7-0.1c0.1,0,0.3,0,0.4,0c0.1,0,0.1,0,0.2,0c0.5-0.1,0.9-0.1,1.3-0.1
		c0.7,0,1.3-0.1,1.9-0.1c0.7,0,1.5-0.1,2.2-0.1c6.9,0,13.6,1.4,20,4.1c0.9,0.4,1.7,0.7,2.4,1.1c1.6,0.8,3.1,1.6,4.5,2.5
		c0.1,0,0.1,0.1,0.2,0.1c6.1,3.8,11.4,8.8,15.5,14.9c1.2,1.7,2.3,3.5,3.2,5.4c0.3,0.7,0.8,1.5,1.2,2.3c1.4,3,0,6.6-3,7.9
		C188.1,314.8,187.3,315,186.5,315z M140,288.5C140,288.5,140,288.5,140,288.5C140,288.5,140,288.5,140,288.5z M140,288.5
		C140,288.5,140,288.5,140,288.5C140,288.5,140,288.5,140,288.5z M140,288.5C140,288.5,140,288.5,140,288.5
		C140,288.5,140,288.5,140,288.5z M140.9,288.4C140.9,288.4,140.8,288.4,140.9,288.4C140.8,288.4,140.9,288.4,140.9,288.4z"/>
	<path class="st0" d="M315.3,362H114.7c-1,0-2-0.3-2.9-0.7l-42.5-23.1c0,0-0.1,0-0.1-0.1l-43.8-23.8c-2.4-1.3-3.6-4.1-2.9-6.7
		c0.7-2.7,3.1-4.5,5.8-4.5h218.9c0.4,0,0.8,0,1.2,0.1c0.4-0.1,0.8-0.1,1.2-0.1h152.4c2.7,0,5.1,1.9,5.8,4.5c0.7,2.7-0.5,5.4-2.9,6.7
		l-86.5,47C317.3,361.8,316.3,362,315.3,362z M116.2,350h197.6l64.4-35H249.4c-0.4,0-0.8,0-1.2-0.1c-0.4,0.1-0.8,0.1-1.2,0.1H51.8
		l23.2,12.6c0,0,0.1,0,0.1,0.1L116.2,350z"/>
	<path class="st0" d="M315.2,391.4H114.8c-3.3,0-6-2.7-6-6V356c0-3.3,2.7-6,6-6h200.3c3.3,0,6,2.7,6,6v29.4
		C321.2,388.7,318.5,391.4,315.2,391.4z M120.8,379.4h188.3V362H120.8V379.4z"/>
</g>
</svg>
