<?xml version="1.0" encoding="utf-8"?>
<!-- Generator: Adobe Illustrator 25.0.1, SVG Export Plug-In . SVG Version: 6.00 Build 0)  -->
<svg version="1.1" id="Layer_1" xmlns="http://www.w3.org/2000/svg" xmlns:xlink="http://www.w3.org/1999/xlink" x="0px" y="0px"
	 viewBox="0 0 430 430" style="enable-background:new 0 0 430 430;" xml:space="preserve">
<style type="text/css">
	.st0{fill:#121331;}
</style>
<g>
	<path class="st0" d="M363.3,324.8H66.7c-9.9,0-18-8.1-18-18v-8.9c0-9.9,8.1-18,18-18h296.7c9.9,0,18,8.1,18,18v8.9
		C381.3,316.7,373.3,324.8,363.3,324.8z M66.7,291.9c-3.3,0-6,2.7-6,6v8.9c0,3.3,2.7,6,6,6h296.7c3.3,0,6-2.7,6-6v-8.9
		c0-3.3-2.7-6-6-6H66.7z"/>
	<path class="st0" d="M348,292H82c-3.3,0-5.9-2.6-6-5.9c0-0.3,0-0.7,0-1c-0.2-32.6,17.4-71.5,44.7-98.9C138.9,167.9,170,146,215,146
		s76.1,21.8,94.3,40.1c27.3,27.5,44.8,66.3,44.7,98.9l0,1C353.9,289.3,351.3,292,348,292z M88.1,280h253.7
		c-1.5-24.2-14.3-58.5-41-85.3c-16.6-16.7-45-36.6-85.8-36.6c-40.9,0-69.2,19.9-85.8,36.6C102.5,221.5,89.6,255.8,88.1,280z"/>
	<path class="st0" d="M215,158c-12.2,0-22.2-11.9-22.2-26.4s9.9-26.4,22.2-26.4s22.2,11.9,22.2,26.4S227.2,158,215,158z M215,117.2
		c-5.5,0-10.2,6.6-10.2,14.4S209.5,146,215,146s10.2-6.6,10.2-14.4S220.5,117.2,215,117.2z"/>
</g>
</svg>
