<?xml version="1.0" encoding="utf-8"?>
<!-- Generator: Adobe Illustrator 25.0.1, SVG Export Plug-In . SVG Version: 6.00 Build 0)  -->
<svg version="1.1" id="Layer_1" xmlns="http://www.w3.org/2000/svg" xmlns:xlink="http://www.w3.org/1999/xlink" x="0px" y="0px"
	 viewBox="0 0 430 430" style="enable-background:new 0 0 430 430;" xml:space="preserve">
<style type="text/css">
	.st0{fill:#121331;}
	.st1{fill:#AD0C62;}
	.st2{fill:none;stroke:#AD0C62;stroke-width:12;stroke-linecap:round;stroke-linejoin:round;stroke-miterlimit:10;}
</style>
<g>
	<g id="_x35_51">
		<g>
			<path class="st0" d="M261.7,261.1c-2.6,0-4.9-1.7-5.7-4.2c-1-3.2,0.8-6.5,4-7.5c13.3-4.1,25.1-11,34.2-20.1
				c2.3-2.3,6.1-2.3,8.5,0c2.3,2.3,2.3,6.1,0,8.5c-10.5,10.5-24,18.5-39.2,23.1C262.8,261,262.2,261.1,261.7,261.1z"/>
			<path class="st0" d="M226.5,265.4c-0.1,0-0.2,0-0.3,0c-14-0.7-27.9-4.2-40.1-10.1c-3.4-1.6-6.7-3.5-9.8-5.2
				c-5.6-3.1-10.9-6.1-16.6-7.9c-6.7-2.1-13.7-1.8-21-1.5c-2.9,0.1-5.9,0.3-9,0.3c-22.6,0-43.7-10.3-54.9-26.8
				c-5-7.4-7.8-15.5-8.3-24.1c0-0.7-0.1-1.5-0.1-2.3c0-17.4,10.8-33.9,29-44c12.8-7.1,26.5-8,39.8-8.8c1.3-0.1,2.6-0.2,3.9-0.2
				c14.5-0.9,26.5-4.4,37.9-11c18-10.4,35.9-15.5,54.9-15.5c51.2,0,92.8,35.3,92.8,78.7c0,0.2,0,0.4,0,0.6c-0.1,6.4-1,12.8-2.9,19
				c-1,3.2-4.3,5-7.5,4c-3.2-1-5-4.3-4-7.5c1.5-5.1,2.3-10.4,2.4-15.8c0-0.1,0-0.3,0-0.4l0,0c0-36.8-36.2-66.7-80.8-66.7
				c-16.8,0-32.8,4.5-48.9,13.9c-13,7.6-26.7,11.6-43.1,12.6c-1.3,0.1-2.6,0.2-3.9,0.2c-12.5,0.8-24.3,1.5-34.7,7.3
				c-14.3,8-22.8,20.5-22.8,33.6c0,0.6,0,1.1,0,1.7c0.3,6.4,2.4,12.4,6.2,18c9,13.3,26.3,21.5,45,21.5c2.8,0,5.6-0.1,8.4-0.3
				c8.1-0.4,16.5-0.8,25.3,2c6.8,2.2,12.9,5.6,18.8,8.9c3.1,1.8,6.1,3.4,9.2,4.9c10.8,5.2,23.1,8.3,35.5,8.9c3.3,0.2,5.9,3,5.7,6.3
				C232.3,262.9,229.7,265.4,226.5,265.4z"/>
			<path class="st0" d="M316,210.7c-0.6,0-1.2-0.1-1.7-0.3c-3.2-1-5-4.3-4-7.5c1.5-5.1,2.3-10.4,2.4-15.8c0-3.3,2.7-6,6-6
				c3.3,0,6,2.7,6,6v15.3c0,2.5-1.5,4.6-3.7,5.5C319.8,209.7,318,210.7,316,210.7z"/>
			<path class="st0" d="M261.7,261.1c-2.6,0-4.9-1.7-5.7-4.2c-1-3.2,0.8-6.5,4-7.5c13.3-4.1,25.1-11,34.2-20.1
				c2.3-2.3,6.1-2.3,8.5,0c2.3,2.3,2.3,6.1,0,8.5c-10.5,10.5-24,18.5-39.2,23.1C262.8,261,262.2,261.1,261.7,261.1z"/>
			<path class="st0" d="M231.9,310.9c-16.1,0-31.9-3.5-45.8-10.2c-3.4-1.6-6.7-3.5-9.8-5.2c-5.6-3.1-10.9-6.1-16.6-7.9
				c-6.7-2.1-13.7-1.8-21-1.4c-2.9,0.1-5.9,0.3-9,0.3c-34,0-61.7-22.4-63.2-50.9c0-0.1,0-0.2,0-0.3v-45.4c0-3.3,2.6-5.9,5.8-6
				c3.3-0.1,6,2.4,6.1,5.7c0.3,6.3,2.4,12.4,6.2,18c9,13.3,26.3,21.5,45,21.5c2.8,0,5.6-0.1,8.4-0.3c8.1-0.4,16.5-0.8,25.3,2
				c6.8,2.2,12.9,5.6,18.8,8.9c3.1,1.8,6.1,3.4,9.2,4.9c10.8,5.2,23.1,8.3,35.5,8.9c3.3,0.2,5.9,3,5.7,6.3c-0.2,3.3-3,5.8-6.3,5.7
				c-14-0.7-27.9-4.2-40.1-10.1c-3.4-1.6-6.7-3.5-9.8-5.2c-5.6-3.1-10.9-6.1-16.6-7.9c-6.7-2.1-13.7-1.8-21-1.5
				c-2.9,0.1-5.9,0.3-9,0.3c-20.3,0-39.4-8.3-51.2-21.9v16c1.2,22.1,23.7,39.4,51.2,39.4c2.8,0,5.6-0.1,8.4-0.3
				c8.1-0.4,16.4-0.8,25.2,2c6.8,2.2,12.9,5.6,18.8,8.9c3.1,1.8,6.1,3.4,9.2,4.9c12.3,5.9,26.3,9,40.6,9c16.1,0,31.7-3.9,45-11.3
				c13.9-7.7,24.8-19,30.6-31.9c1.4-3,4.9-4.3,7.9-3c3,1.4,4.3,4.9,3,7.9c-7,15.4-19.4,28.4-35.7,37.5
				C267.6,306.5,250,310.9,231.9,310.9z"/>
		</g>
		<path class="st0" d="M128.9,206.9c-14.1,0-25.2-8.4-25.2-19.1c0-10.7,11.1-19.1,25.2-19.1c14.1,0,25.2,8.4,25.2,19.1
			C154.1,198.5,143,206.9,128.9,206.9z M128.9,180.6c-7.5,0-13.2,3.8-13.2,7.1s5.6,7.1,13.2,7.1s13.2-3.8,13.2-7.1
			S136.4,180.6,128.9,180.6z"/>
		<path class="st1" d="M266.3,224c-0.5,0-1-0.1-1.5-0.2l-79.3-20.1c-3.2-0.8-5.2-4.1-4.3-7.3c0.8-3.2,4.1-5.2,7.3-4.3l79.3,20.1
			c3.2,0.8,5.2,4.1,4.3,7.3C271.4,222.2,268.9,224,266.3,224z"/>
		<path class="st1" d="M259.4,193.7c-0.5,0-1-0.1-1.5-0.2l-51.7-13.1c-3.2-0.8-5.2-4.1-4.3-7.3c0.8-3.2,4.1-5.2,7.3-4.3l51.7,13.1
			c3.2,0.8,5.2,4.1,4.3,7.3C264.5,191.9,262.1,193.7,259.4,193.7z"/>
		<path class="st1" d="M256.9,163.8c-0.5,0-1-0.1-1.5-0.2l-26.1-6.6c-3.2-0.8-5.2-4.1-4.3-7.3c0.8-3.2,4.1-5.2,7.3-4.3l26.1,6.6
			c3.2,0.8,5.2,4.1,4.3,7.3C262,161.9,259.6,163.8,256.9,163.8z"/>
	</g>
	<path class="st1" d="M282.8,321.9c0,0-0.1,0-0.1,0c-3.3-0.1-5.9-2.8-5.9-6.1c0.2-7.8-1.8-29-12.1-38.3c-6.8,0.6-24.9,0.8-38.9-10.5
		c-10.7-8.7-16.5-21.9-17.3-39.4c-0.1-2.6,1.4-5,3.9-5.9c0.6-0.2,15.9-5.8,31.8,2.8c13.2,7.2,22.6,21.8,27.7,43.3
		c17.5,14.7,16.9,46.9,16.9,48.3C288.7,319.3,286,321.9,282.8,321.9z M220.9,231.9c1.4,11.4,5.5,20,12.4,25.6
		c8.2,6.7,18.8,8,25.6,8.1c-4.4-15.3-11.2-25.6-20.3-30.6C231.8,231.3,225.1,231.3,220.9,231.9z"/>
	<path class="st1" d="M279.7,298.5c-0.1,0-0.2,0-0.3,0c-3.3-0.2-5.9-3-5.7-6.3c0.9-16.7,12.2-28.6,17.9-33.5
		c-1.3-8.1-2.7-27,8.5-44.8c10.7-16.9,29.6-28,56.4-33c1.8-0.3,3.7,0.2,5.1,1.4s2.1,3,2,4.8c-0.1,1.4-2,33.6-19.1,56.1
		c-14.6,19.3-37.1,23-44,23.6c-3.6,2.9-14.1,12.6-14.8,25.9C285.5,296.1,282.9,298.5,279.7,298.5z M350.7,194.5
		c-19.1,4.9-32.6,13.5-40.4,25.9c-8.1,12.9-8,26.8-7.1,34.1c7.7-1.4,22.2-5.7,31.8-18.4C345,222.7,349.1,204.7,350.7,194.5z"/>
	<path class="st2" d="M266.5,271.2"/>
</g>
</svg>
